<?xml version="1.0" encoding="utf-8"?>
<!-- Generator: Adobe Illustrator 16.0.0, SVG Export Plug-In . SVG Version: 6.00 Build 0)  -->
<!DOCTYPE svg PUBLIC "-//W3C//DTD SVG 1.1//EN" "http://www.w3.org/Graphics/SVG/1.1/DTD/svg11.dtd">
<svg version="1.1" xmlns="http://www.w3.org/2000/svg" xmlns:xlink="http://www.w3.org/1999/xlink" x="0px" y="0px" width="1280px"
	 height="800px" viewBox="0 0 1280 800" enable-background="new 0 0 1280 800" xml:space="preserve">
<g id="Layer_1">
	<rect x="-1" y="-4" fill="#F7931E" width="1299" height="118"/>
	<line fill="#FFFFFF" stroke="#000000" stroke-width="3" x1="46" y1="66.5" x2="316" y2="66.5"/>
	<rect x="202.297" y="73" fill="none" width="121.016" height="15"/>
	<text transform="matrix(1 0 0 1 202.2974 82.084)" fill="#FFFFFF" font-family="'FuturaBT-Heavy'" font-size="12">Fullstack Developer</text>
	<polygon fill="#FFFFFF" stroke="#000000" stroke-width="2" points="53.333,39.271 55.703,44.072 61.001,44.842 57.167,48.579 
		58.072,53.855 53.333,51.365 48.595,53.855 49.5,48.579 45.666,44.842 50.964,44.072 	"/>
	<polygon fill="#FFFFFF" stroke="#000000" stroke-width="2" points="307.333,40.271 309.703,45.072 315.001,45.842 311.167,49.579 
		312.072,54.855 307.333,52.365 302.595,54.855 303.5,49.579 299.666,45.842 304.964,45.072 	"/>
	<rect x="65" y="35" fill="#F2F2F2" width="230" height="25"/>
	<text transform="matrix(0.9798 0 0 1 64.333 60.1719)" font-family="'Blocked'" font-size="31.3167" letter-spacing="-3.062">AdrianEscoto</text>
	
		<text transform="matrix(0.9798 0 0 1 666.666 70.856)" fill="#333333" font-family="'Dunkin'" font-size="31.3167" letter-spacing="-1.021">About</text>
	
		<text transform="matrix(0.9798 0 0 1 806.9492 71)" fill="#333333" font-family="'Dunkin'" font-size="31.3167" letter-spacing="-1.021">Skills</text>
	
		<text transform="matrix(0.9798 0 0 1 917.9941 71)" fill="#333333" font-family="'Dunkin'" font-size="31.3167" letter-spacing="-1.021">Project</text>
	
		<text transform="matrix(0.9798 0 0 1 1068.4863 70.856)" fill="#333333" font-family="'Dunkin'" font-size="31.3167" letter-spacing="-1.021">Contact</text>
	<rect x="-2" y="115" fill="#00A99D" width="1289" height="686"/>
	<polygon fill="#F7931E" points="1287,800 -1.438,799.786 1287,621.333 	"/>
	<rect x="259" y="328" fill="#F7931E" width="646" height="197"/>
	<polygon fill="#F7931E" points="259,328 188.65,422.588 259,525.452 259,431.16 	"/>
	<polygon fill="#333333" points="811,511.37 910,525 259.116,525 	"/>
	<polygon fill="#333333" points="-1.438,799.786 0,766.608 1280,622.333 	"/>
	<rect x="265.391" y="372.146" fill="none" width="538.891" height="161.224"/>
	<text transform="matrix(0.9798 0 0 1 265.3911 395.5835)"><tspan x="0" y="0" fill="#F2F2F2" font-family="'Dunkin'" font-size="30" letter-spacing="-1.021">I’m Adrian Escoto, an aspiring </tspan><tspan x="0" y="36" fill="#F2F2F2" font-family="'Dunkin'" font-size="30" letter-spacing="-1.021">Fullstack Developer Located </tspan><tspan x="0" y="72" fill="#F2F2F2" font-family="'Dunkin'" font-size="30" letter-spacing="-1.021">at Manila, Philippines.</tspan></text>
	<circle fill="#333333" stroke="#F7931E" stroke-width="5" stroke-miterlimit="10" cx="950.384" cy="426.268" r="146.102"/>
	<rect y="110" fill="#333333" width="1287" height="7"/>
	<rect x="-4" y="1802" fill="#333333" width="1287" height="7"/>
	
		<text transform="matrix(0.9798 0 0 1 211.1089 280.0322)" fill="#F2F2F2" font-family="'Dunkin'" font-size="103.9547" letter-spacing="-6.124">Bonjour!</text>
</g>
<g id="Layer_2">
	<rect x="-5" y="840" fill="#F7931E" width="1292" height="121"/>
	<rect x="-2" y="959" fill="#00A99D" width="1289" height="697"/>
	<polygon fill="#333333" points="594.44,1655 -4.509,1655 -5.479,955.254 718.092,957.181 	"/>
	<text transform="matrix(0.9798 0 0 1 164.5 1125)" fill="#F2F2F2" font-family="'Dunkin'" font-size="30" letter-spacing="-2.041">Front-end development</text>
	
		<text transform="matrix(0.9798 0 0 1 164.5 1364.333)" fill="#F2F2F2" font-family="'Dunkin'" font-size="30" letter-spacing="-2.041">Back-end development</text>
	<text transform="matrix(0.9798 0 0 1 165.5 1176.417)" fill="#F2F2F2" font-family="'Dunkin'" font-size="20">HTML:</text>
	<polygon fill="#F7931E" points="355.724,1153.171 359.5,1160.823 367.945,1162.05 361.834,1168.007 363.277,1176.417 
		355.724,1172.446 348.17,1176.417 349.613,1168.007 343.502,1162.05 351.947,1160.823 	"/>
	<polygon fill="#F7931E" points="389.724,1153.171 393.5,1160.823 401.945,1162.05 395.834,1168.007 397.277,1176.417 
		389.724,1172.446 382.17,1176.417 383.613,1168.007 377.502,1162.05 385.947,1160.823 	"/>
	<polygon fill="#F7931E" points="421.46,1153.671 425.156,1161.158 433.419,1162.359 427.439,1168.188 428.852,1176.417 
		421.46,1172.531 414.07,1176.417 415.481,1168.188 409.502,1162.359 417.765,1161.158 	"/>
	<polygon fill="#F2F2F2" points="453.46,1153.671 457.156,1161.158 465.419,1162.359 459.439,1168.188 460.852,1176.417 
		453.46,1172.531 446.07,1176.417 447.481,1168.188 441.502,1162.359 449.765,1161.158 	"/>
	<polygon fill="#F2F2F2" points="484.46,1153.671 488.156,1161.158 496.419,1162.359 490.439,1168.188 491.852,1176.417 
		484.46,1172.531 477.07,1176.417 478.481,1168.188 472.502,1162.359 480.765,1161.158 	"/>
	<text transform="matrix(0.9798 0 0 1 165.5 1217.417)" fill="#F2F2F2" font-family="'Dunkin'" font-size="20">CSS:</text>
	<polygon fill="#F7931E" points="355.724,1194.171 359.5,1201.823 367.945,1203.05 361.834,1209.007 363.277,1217.417 
		355.724,1213.446 348.17,1217.417 349.613,1209.007 343.502,1203.05 351.947,1201.823 	"/>
	<polygon fill="#F7931E" points="389.724,1194.171 393.5,1201.823 401.945,1203.05 395.834,1209.007 397.277,1217.417 
		389.724,1213.446 382.17,1217.417 383.613,1209.007 377.502,1203.05 385.947,1201.823 	"/>
	<polygon fill="#F7931E" points="421.46,1194.671 425.156,1202.158 433.419,1203.359 427.439,1209.188 428.852,1217.417 
		421.46,1213.531 414.07,1217.417 415.481,1209.188 409.502,1203.359 417.765,1202.158 	"/>
	<polygon fill="#F2F2F2" points="453.46,1194.671 457.156,1202.158 465.419,1203.359 459.439,1209.188 460.852,1217.417 
		453.46,1213.531 446.07,1217.417 447.481,1209.188 441.502,1203.359 449.765,1202.158 	"/>
	<polygon fill="#F2F2F2" points="484.46,1194.671 488.156,1202.158 496.419,1203.359 490.439,1209.188 491.852,1217.417 
		484.46,1213.531 477.07,1217.417 478.481,1209.188 472.502,1203.359 480.765,1202.158 	"/>
	<text transform="matrix(0.9798 0 0 1 165.5 1260.417)" fill="#F2F2F2" font-family="'Dunkin'" font-size="20">Bootstrap:</text>
	<polygon fill="#F7931E" points="355.724,1237.171 359.5,1244.823 367.945,1246.05 361.834,1252.007 363.277,1260.417 
		355.724,1256.446 348.17,1260.417 349.613,1252.007 343.502,1246.05 351.947,1244.823 	"/>
	<polygon fill="#F7931E" points="389.724,1237.171 393.5,1244.823 401.945,1246.05 395.834,1252.007 397.277,1260.417 
		389.724,1256.446 382.17,1260.417 383.613,1252.007 377.502,1246.05 385.947,1244.823 	"/>
	<polygon fill="#F7931E" points="421.46,1237.671 425.156,1245.158 433.419,1246.359 427.439,1252.188 428.852,1260.417 
		421.46,1256.531 414.07,1260.417 415.481,1252.188 409.502,1246.359 417.765,1245.158 	"/>
	<polygon fill="#F2F2F2" points="453.46,1237.671 457.156,1245.158 465.419,1246.359 459.439,1252.188 460.852,1260.417 
		453.46,1256.531 446.07,1260.417 447.481,1252.188 441.502,1246.359 449.765,1245.158 	"/>
	<polygon fill="#F2F2F2" points="484.46,1237.671 488.156,1245.158 496.419,1246.359 490.439,1252.188 491.852,1260.417 
		484.46,1256.531 477.07,1260.417 478.481,1252.188 472.502,1246.359 480.765,1245.158 	"/>
	<text transform="matrix(0.9798 0 0 1 164.5 1305.417)" fill="#F2F2F2" font-family="'Dunkin'" font-size="20">Javascript:</text>
	<polygon fill="#F7931E" points="354.724,1282.171 358.5,1289.823 366.945,1291.05 360.834,1297.007 362.277,1305.417 
		354.724,1301.446 347.17,1305.417 348.613,1297.007 342.502,1291.05 350.947,1289.823 	"/>
	<polygon fill="#F7931E" points="388.724,1282.171 392.5,1289.823 400.945,1291.05 394.834,1297.007 396.277,1305.417 
		388.724,1301.446 381.17,1305.417 382.613,1297.007 376.502,1291.05 384.947,1289.823 	"/>
	<polygon fill="#F7931E" points="420.46,1282.671 424.156,1290.158 432.419,1291.359 426.439,1297.188 427.852,1305.417 
		420.46,1301.531 413.07,1305.417 414.481,1297.188 408.502,1291.359 416.765,1290.158 	"/>
	<polygon fill="#F2F2F2" points="452.46,1282.671 456.156,1290.158 464.419,1291.359 458.439,1297.188 459.852,1305.417 
		452.46,1301.531 445.07,1305.417 446.481,1297.188 440.502,1291.359 448.765,1290.158 	"/>
	<polygon fill="#F2F2F2" points="483.46,1282.671 487.156,1290.158 495.419,1291.359 489.439,1297.188 490.852,1305.417 
		483.46,1301.531 476.07,1305.417 477.481,1297.188 471.502,1291.359 479.765,1290.158 	"/>
	<text transform="matrix(0.9798 0 0 1 165.5 1421.417)" fill="#F2F2F2" font-family="'Dunkin'" font-size="20">PHP:</text>
	<polygon fill="#F7931E" points="355.724,1398.171 359.5,1405.823 367.945,1407.05 361.834,1413.007 363.277,1421.417 
		355.724,1417.446 348.17,1421.417 349.613,1413.007 343.502,1407.05 351.947,1405.823 	"/>
	<polygon fill="#F7931E" points="389.724,1398.171 393.5,1405.823 401.945,1407.05 395.834,1413.007 397.277,1421.417 
		389.724,1417.446 382.17,1421.417 383.613,1413.007 377.502,1407.05 385.947,1405.823 	"/>
	<polygon fill="#F7931E" points="421.46,1398.671 425.156,1406.158 433.419,1407.359 427.439,1413.188 428.852,1421.417 
		421.46,1417.531 414.07,1421.417 415.481,1413.188 409.502,1407.359 417.765,1406.158 	"/>
	<polygon fill="#F2F2F2" points="453.46,1398.671 457.156,1406.158 465.419,1407.359 459.439,1413.188 460.852,1421.417 
		453.46,1417.531 446.07,1421.417 447.481,1413.188 441.502,1407.359 449.765,1406.158 	"/>
	<polygon fill="#F2F2F2" points="484.46,1398.671 488.156,1406.158 496.419,1407.359 490.439,1413.188 491.852,1421.417 
		484.46,1417.531 477.07,1421.417 478.481,1413.188 472.502,1407.359 480.765,1406.158 	"/>
	<text transform="matrix(0.9798 0 0 1 165.5 1462.417)" fill="#F2F2F2" font-family="'Dunkin'" font-size="20">MySql:</text>
	<polygon fill="#F7931E" points="355.724,1439.171 359.5,1446.823 367.945,1448.05 361.834,1454.007 363.277,1462.417 
		355.724,1458.446 348.17,1462.417 349.613,1454.007 343.502,1448.05 351.947,1446.823 	"/>
	<polygon fill="#F7931E" points="389.724,1439.171 393.5,1446.823 401.945,1448.05 395.834,1454.007 397.277,1462.417 
		389.724,1458.446 382.17,1462.417 383.613,1454.007 377.502,1448.05 385.947,1446.823 	"/>
	<polygon fill="#F7931E" points="421.46,1439.671 425.156,1447.158 433.419,1448.359 427.439,1454.188 428.852,1462.417 
		421.46,1458.531 414.07,1462.417 415.481,1454.188 409.502,1448.359 417.765,1447.158 	"/>
	<polygon fill="#F2F2F2" points="453.46,1439.671 457.156,1447.158 465.419,1448.359 459.439,1454.188 460.852,1462.417 
		453.46,1458.531 446.07,1462.417 447.481,1454.188 441.502,1448.359 449.765,1447.158 	"/>
	<polygon fill="#F2F2F2" points="484.46,1439.671 488.156,1447.158 496.419,1448.359 490.439,1454.188 491.852,1462.417 
		484.46,1458.531 477.07,1462.417 478.481,1454.188 472.502,1448.359 480.765,1447.158 	"/>
	<text transform="matrix(0.9798 0 0 1 165.5 1505.417)" fill="#F2F2F2" font-family="'Dunkin'" font-size="20">Laravel:</text>
	<polygon fill="#F7931E" points="355.724,1482.171 359.5,1489.823 367.945,1491.05 361.834,1497.007 363.277,1505.417 
		355.724,1501.446 348.17,1505.417 349.613,1497.007 343.502,1491.05 351.947,1489.823 	"/>
	<polygon fill="#F7931E" points="389.724,1482.171 393.5,1489.823 401.945,1491.05 395.834,1497.007 397.277,1505.417 
		389.724,1501.446 382.17,1505.417 383.613,1497.007 377.502,1491.05 385.947,1489.823 	"/>
	<polygon fill="#F7931E" points="421.46,1482.671 425.156,1490.158 433.419,1491.359 427.439,1497.188 428.852,1505.417 
		421.46,1501.531 414.07,1505.417 415.481,1497.188 409.502,1491.359 417.765,1490.158 	"/>
	<polygon fill="#F2F2F2" points="453.46,1482.671 457.156,1490.158 465.419,1491.359 459.439,1497.188 460.852,1505.417 
		453.46,1501.531 446.07,1505.417 447.481,1497.188 441.502,1491.359 449.765,1490.158 	"/>
	<polygon fill="#F2F2F2" points="484.46,1482.671 488.156,1490.158 496.419,1491.359 490.439,1497.188 491.852,1505.417 
		484.46,1501.531 477.07,1505.417 478.481,1497.188 472.502,1491.359 480.765,1490.158 	"/>
	
		<text transform="matrix(0.9798 0 0 1 281.3301 1070.6455)" fill="#F2F2F2" font-family="'Dunkin'" font-size="39.5874" letter-spacing="-1.021">Skills</text>
	<text transform="matrix(0.9798 0 0 1 830 1101.3584)"><tspan x="0" y="0" fill="#333333" font-family="'HelveticaWorld-Bold'" font-size="32.5514" letter-spacing="-1.021">“You can only become</tspan><tspan x="0" y="39.062" fill="#333333" font-family="'HelveticaWorld-Bold'" font-size="32.5514" letter-spacing="-1.021">truly accomplished at</tspan><tspan x="0" y="78.123" fill="#333333" font-family="'HelveticaWorld-Bold'" font-size="32.5514" letter-spacing="-1.021">something you love.</tspan><tspan x="0" y="117.186" fill="#333333" font-family="'HelveticaWorld-Bold'" font-size="32.5514" letter-spacing="-1.021">Don’t make money your</tspan><tspan x="0" y="156.247" fill="#333333" font-family="'HelveticaWorld-Bold'" font-size="32.5514" letter-spacing="-1.021">goal. Instead, pursue the</tspan><tspan x="0" y="195.309" fill="#333333" font-family="'HelveticaWorld-Bold'" font-size="32.5514" letter-spacing="-1.021">thinhs you love doing and</tspan><tspan x="0" y="234.37" fill="#333333" font-family="'HelveticaWorld-Bold'" font-size="32.5514" letter-spacing="-1.021">then do them so well that</tspan><tspan x="0" y="273.432" fill="#333333" font-family="'HelveticaWorld-Bold'" font-size="32.5514" letter-spacing="-1.021">people can’t take their </tspan><tspan x="0" y="312.494" fill="#333333" font-family="'HelveticaWorld-Bold'" font-size="32.5514" letter-spacing="-1.021">eyes of you”</tspan><tspan x="0" y="351.556" fill="#333333" font-family="'HelveticaWorld-Bold'" font-size="32.5514" letter-spacing="-1.021">- </tspan><tspan x="16.978" y="351.556" fill="#333333" font-family="'HelveticaWorld-Italic'" font-size="32.5514" letter-spacing="-1.021">Maya Angelou</tspan></text>
	<line fill="#FFFFFF" stroke="#000000" stroke-width="3" x1="46" y1="910.5" x2="316" y2="910.5"/>
	<rect x="202.297" y="917" fill="none" width="121.016" height="15"/>
	<text transform="matrix(1 0 0 1 202.2974 926.084)" fill="#FFFFFF" font-family="'FuturaBT-Heavy'" font-size="12">Fullstack Developer</text>
	<polygon fill="#FFFFFF" stroke="#000000" stroke-width="2" points="53.333,883.271 55.703,888.072 61.001,888.842 57.167,892.579 
		58.072,897.855 53.333,895.365 48.595,897.855 49.5,892.579 45.666,888.842 50.964,888.072 	"/>
	<polygon fill="#FFFFFF" stroke="#000000" stroke-width="2" points="307.333,884.271 309.703,889.072 315.001,889.842 
		311.167,893.579 312.072,898.855 307.333,896.365 302.595,898.855 303.5,893.579 299.666,889.842 304.964,889.072 	"/>
	<rect x="65" y="879" fill="#F2F2F2" width="230" height="25"/>
	<text transform="matrix(0.9798 0 0 1 64.333 904.1719)" font-family="'Blocked'" font-size="31.3167" letter-spacing="-3.062">AdrianEscoto</text>
	
		<text transform="matrix(0.9798 0 0 1 666.666 914.8555)" fill="#333333" font-family="'Dunkin'" font-size="31.3167" letter-spacing="-1.021">About</text>
	
		<text transform="matrix(0.9798 0 0 1 806.9492 915)" fill="#333333" font-family="'Dunkin'" font-size="31.3167" letter-spacing="-1.021">Skills</text>
	
		<text transform="matrix(0.9798 0 0 1 917.9941 915)" fill="#333333" font-family="'Dunkin'" font-size="31.3167" letter-spacing="-1.021">Project</text>
	
		<text transform="matrix(0.9798 0 0 1 1068.4863 914.8555)" fill="#333333" font-family="'Dunkin'" font-size="31.3167" letter-spacing="-1.021">Contact</text>
	<rect y="1677" fill="#F7931E" width="1283" height="128"/>
	<rect x="-1" y="955" fill="#333333" width="1287" height="7"/>
</g>
<g id="Layer_3">
	<rect x="1" y="1677" fill="#F7931E" width="1283" height="128"/>
	<line fill="#FFFFFF" stroke="#000000" stroke-width="3" x1="46" y1="1760.5" x2="316" y2="1760.5"/>
	<rect x="202.297" y="1767" fill="none" width="121.016" height="15"/>
	<text transform="matrix(1 0 0 1 202.2974 1776.084)" fill="#FFFFFF" font-family="'FuturaBT-Heavy'" font-size="12">Fullstack Developer</text>
	<polygon fill="#FFFFFF" stroke="#000000" stroke-width="2" points="53.333,1733.271 55.703,1738.072 61.001,1738.842 
		57.167,1742.579 58.072,1747.855 53.333,1745.365 48.595,1747.855 49.5,1742.579 45.666,1738.842 50.964,1738.072 	"/>
	<polygon fill="#FFFFFF" stroke="#000000" stroke-width="2" points="307.333,1734.271 309.703,1739.072 315.001,1739.842 
		311.167,1743.579 312.072,1748.855 307.333,1746.365 302.595,1748.855 303.5,1743.579 299.666,1739.842 304.964,1739.072 	"/>
	<rect x="65" y="1729" fill="#F2F2F2" width="230" height="25"/>
	<text transform="matrix(0.9798 0 0 1 64.333 1754.1719)" font-family="'Blocked'" font-size="31.3167" letter-spacing="-3.062">AdrianEscoto</text>
	
		<text transform="matrix(0.9798 0 0 1 666.666 1764.8555)" fill="#333333" font-family="'Dunkin'" font-size="31.3167" letter-spacing="-1.021">About</text>
	
		<text transform="matrix(0.9798 0 0 1 806.9492 1765)" fill="#333333" font-family="'Dunkin'" font-size="31.3167" letter-spacing="-1.021">Skills</text>
	
		<text transform="matrix(0.9798 0 0 1 917.9941 1765)" fill="#333333" font-family="'Dunkin'" font-size="31.3167" letter-spacing="-1.021">Project</text>
	
		<text transform="matrix(0.9798 0 0 1 1068.4863 1764.8555)" fill="#333333" font-family="'Dunkin'" font-size="31.3167" letter-spacing="-1.021">Contact</text>
	<rect y="1807" fill="#00A99D" width="1280" height="669"/>
	<rect x="455" y="1905" fill="#F7931E" width="375" height="398"/>
	<rect x="455" y="1928" fill="#333333" width="375" height="300"/>
	<rect x="46" y="1905" fill="#F7931E" width="375" height="398"/>
	<rect x="46" y="1928" fill="#333333" width="375" height="300"/>
	<rect x="861" y="1905" fill="#F7931E" width="374" height="393"/>
	<rect x="861" y="1927" fill="#333333" width="374" height="301"/>
	<text transform="matrix(0.9798 0 0 1 139.0015 2272.5)" fill="#FFFFFF" font-family="'Dunkin-Bold'" font-size="27">Capstone 1</text>
	<text transform="matrix(0.9798 0 0 1 523.9819 1868.0264)" fill="#FFFFFF" font-family="'Dunkin-Bold'" font-size="27">Latest Projects</text>
	<text transform="matrix(0.9798 0 0 1 546.981 2272.5)" fill="#FFFFFF" font-family="'Dunkin-Bold'" font-size="27">Capstone 2</text>
	<text transform="matrix(0.9798 0 0 1 955.4912 2272.5)" fill="#FFFFFF" font-family="'Dunkin-Bold'" font-size="27">Capstone 3</text>
	<rect y="2403" fill="#333333" width="1280" height="73"/>
	<rect x="-4" y="1805" fill="#333333" width="1287" height="7"/>
</g>
<g id="Layer_4">
	<rect x="1" y="2544" fill="#F7931E" width="1283" height="128"/>
	<line fill="#FFFFFF" stroke="#000000" stroke-width="3" x1="46" y1="2627.5" x2="316" y2="2627.5"/>
	<rect x="202.297" y="2634" fill="none" width="121.017" height="15"/>
	<text transform="matrix(1 0 0 1 202.2974 2643.084)" fill="#FFFFFF" font-family="'FuturaBT-Heavy'" font-size="12">Fullstack Developer</text>
	<polygon fill="#FFFFFF" stroke="#000000" stroke-width="2" points="53.334,2600.271 55.703,2605.072 61.001,2605.842 
		57.168,2609.579 58.072,2614.855 53.334,2612.365 48.595,2614.855 49.5,2609.579 45.666,2605.842 50.964,2605.072 	"/>
	<polygon fill="#FFFFFF" stroke="#000000" stroke-width="2" points="307.334,2601.271 309.703,2606.072 315.001,2606.842 
		311.168,2610.579 312.072,2615.855 307.334,2613.365 302.595,2615.855 303.5,2610.579 299.666,2606.842 304.964,2606.072 	"/>
	<rect x="65" y="2596" fill="#F2F2F2" width="230" height="25"/>
	<text transform="matrix(0.9798 0 0 1 64.333 2621.1719)" font-family="'Blocked'" font-size="31.3167" letter-spacing="-3.062">AdrianEscoto</text>
	
		<text transform="matrix(0.9798 0 0 1 666.666 2631.8555)" fill="#333333" font-family="'Dunkin'" font-size="31.3167" letter-spacing="-1.021">About</text>
	
		<text transform="matrix(0.9798 0 0 1 806.9492 2632)" fill="#333333" font-family="'Dunkin'" font-size="31.3167" letter-spacing="-1.021">Skills</text>
	
		<text transform="matrix(0.9798 0 0 1 917.9941 2632)" fill="#333333" font-family="'Dunkin'" font-size="31.3167" letter-spacing="-1.021">Project</text>
	
		<text transform="matrix(0.9798 0 0 1 1068.4863 2631.8555)" fill="#333333" font-family="'Dunkin'" font-size="31.3167" letter-spacing="-1.021">Contact</text>
	<rect y="2674" fill="#00A99D" width="1280" height="669"/>
	<rect x="1" y="2780" fill="#FFFFFF" width="666" height="398"/>
	<rect x="-4" y="2672" fill="#333333" width="1287" height="7"/>
	<rect x="151" y="2728" fill="#333333" width="297" height="67"/>
	<text transform="matrix(0.9798 0 0 1 202.2969 2770.0264)" fill="#F2F2F2" font-family="'Dunkin-Bold'" font-size="27">Contact me</text>
	<line fill="none" x1="70" y1="2862" x2="367" y2="2862"/>
	<text transform="matrix(0.9798 0 0 1 790.9492 2806)"><tspan x="0" y="0" fill="#333333" font-family="'HelveticaWorld-Bold'" font-size="32.5514" letter-spacing="-1.021">Do you have any Ideas or </tspan><tspan x="0" y="39.062" fill="#333333" font-family="'HelveticaWorld-Bold'" font-size="32.5514" letter-spacing="-1.021">Project in mind? Hit me a</tspan><tspan x="0" y="78.123" fill="#333333" font-family="'HelveticaWorld-Bold'" font-size="32.5514" letter-spacing="-1.021">message and I will get </tspan><tspan x="0" y="117.186" fill="#333333" font-family="'HelveticaWorld-Bold'" font-size="32.5514" letter-spacing="-1.021">you a coffee.</tspan></text>
	
		<text transform="matrix(0.9798 0 0 1 790.9492 2988.9912)" fill="#333333" font-family="'HelveticaWorld-Regular'" font-size="32.5514" letter-spacing="-1.021">adrianescto@gmail.com</text>
	<rect y="3272" fill="#F7931E" width="1280" height="71"/>
	<polygon fill="#333333" points="1,3203.45 1,3178 667,3178 	"/>
	<text transform="matrix(0.9798 0 0 1 1111.9395 2442)" fill="#F2F2F2" font-family="'HelveticaWorld-Regular'" font-size="9.2119">Hand crafted by: Adrian Escoto | 2018</text>
	
		<text transform="matrix(0.9798 0 0 1 1111.9395 1607.917)" fill="#F2F2F2" font-family="'HelveticaWorld-Regular'" font-size="9.2119">Hand crafted by: Adrian Escoto | 2018</text>
	<text transform="matrix(0.9798 0 0 1 1111.9395 3311)" fill="#333333" font-family="'HelveticaWorld-Regular'" font-size="9.2119">Hand crafted by: Adrian Escoto | 2018</text>
</g>
</svg>
